<svg xmlns="http://www.w3.org/2000/svg" width="1200" height="630" viewBox="0 0 1200 630">
	<defs>
		<linearGradient id="bg" x1="0" y1="0" x2="1" y2="1">
			<stop offset="0" stop-color="#1b2027" />
			<stop offset="1" stop-color="#0c0e12" />
		</linearGradient>
		<radialGradient id="glow" cx="82%" cy="12%" r="55%">
			<stop offset="0" stop-color="#ff6a1a" stop-opacity="0.30" />
			<stop offset="1" stop-color="#ff6a1a" stop-opacity="0" />
		</radialGradient>
		<linearGradient id="arc" x1="0" y1="0" x2="0" y2="1">
			<stop offset="0" stop-color="#ffb340" />
			<stop offset="1" stop-color="#ff6a1a" />
		</linearGradient>
	</defs>

	<rect width="1200" height="630" fill="url(#bg)" />
	<rect width="1200" height="630" fill="url(#glow)" />

	<!-- grid -->
	<g stroke="#2c333d" stroke-width="1" opacity="0.35">
		<path d="M0 90H1200M0 180H1200M0 270H1200M0 360H1200M0 450H1200M0 540H1200" />
		<path d="M120 0V630M240 0V630M360 0V630M480 0V630M600 0V630M720 0V630M840 0V630M960 0V630M1080 0V630" />
	</g>

	<!-- mark -->
	<g transform="translate(90 86)">
		<rect width="64" height="64" rx="14" fill="#14181f" stroke="#2c333d" stroke-width="2" />
		<rect x="9" y="20" width="17" height="24" rx="3" fill="#46505d" />
		<rect x="38" y="20" width="17" height="24" rx="3" fill="#46505d" />
		<polyline points="26,32 30,21 34,43 38,32" fill="none" stroke="url(#arc)" stroke-width="4.5" stroke-linecap="round" stroke-linejoin="round" />
		<circle cx="32" cy="32" r="4" fill="#ffb340" />
		<circle cx="32" cy="13" r="1.8" fill="#ffb340" />
		<circle cx="32" cy="51" r="1.8" fill="#ffb340" />
	</g>
	<text x="172" y="132" font-family="Oswald, Arial Narrow, sans-serif" font-size="40" font-weight="700" letter-spacing="6" fill="#f4f7fb">KOLDARC</text>

	<!-- headline -->
	<text x="88" y="300" font-family="Oswald, Arial Narrow, sans-serif" font-size="104" font-weight="700" fill="#f4f7fb">MOBILE WELDING</text>
	<text x="88" y="404" font-family="Oswald, Arial Narrow, sans-serif" font-size="104" font-weight="700" fill="url(#arc)">REPAIR</text>

	<text x="92" y="470" font-family="Inter, sans-serif" font-size="34" fill="#c6cfda">Knoxville &amp; East Tennessee · On-site · We come to you</text>

	<!-- CTA pill -->
	<g transform="translate(92 520)">
		<rect width="430" height="64" rx="32" fill="url(#arc)" />
		<text x="215" y="42" text-anchor="middle" font-family="Oswald, Arial Narrow, sans-serif" font-size="28" font-weight="600" letter-spacing="2" fill="#1a0c02">CALL OR TEXT FOR A QUOTE</text>
	</g>
</svg>
